<svg xmlns="http://www.w3.org/2000/svg" xmlns:xlink="http://www.w3.org/1999/xlink" width="310" height="400" viewBox="0 0 310 400"><defs><style>.cls-1{fill:none;}.cls-2{isolation:isolate;}.cls-3,.cls-7{fill:#271e15;}.cls-3{opacity:0.13;}.cls-24,.cls-3,.cls-7{mix-blend-mode:multiply;}.cls-4{fill:#764d24;}.cls-5{clip-path:url(#clip-path);}.cls-6{fill:#a9713e;}.cls-7{opacity:0.3;}.cls-8{fill:#35281c;}.cls-9{fill:#8c6339;stroke:#a67449;stroke-miterlimit:10;stroke-width:0.84px;}.cls-10{fill:#704a30;}.cls-11{fill:#563823;}.cls-12{fill:#8a5d3b;}.cls-13{fill:#e1a780;}.cls-14{fill:#613f29;}.cls-15{fill:#2c1d13;}.cls-16{fill:#f09d2e;}.cls-17{fill:#efdc30;}.cls-18,.cls-21{fill:#8b6339;}.cls-19{fill:#684425;}.cls-19,.cls-21{opacity:0.4;}.cls-20{fill:#a67d52;}.cls-22{fill:#124b6e;}.cls-23{fill:#1b75ba;}.cls-24{fill:#211e1f;}.cls-25{fill:#25a8e0;}.cls-26{fill:#e82429;}.cls-27{fill:#f6921e;}.cls-28{fill:#fff;}</style><clipPath id="clip-path"><polygon class="cls-1" points="118.66 248.12 102.78 0.3 347.05 0.3 337.42 254.72 118.66 248.12"/></clipPath></defs><title>Artboard 1 copy 13</title><g class="cls-2"><g id="Layer_1" data-name="Layer 1"><path class="cls-3" d="M107.87,235.09C107.61,233.54,94.11-5,94.11-5l25.14,2.21s10.66,243.07,10.66,241.73S107.87,235.09,107.87,235.09Z"/><polygon class="cls-4" points="309.95 0.3 102.78 0.3 118.66 248.12 309.95 253.89 309.95 0.3"/><g class="cls-5"><path class="cls-6" d="M310,201.46c-25.62,1.07-51.7,2.21-76.95,3.31-43.95,1.91-89.4,3.89-134,5.57l.07,1.13c44.62-1.69,90.06-3.67,134-5.58,25.22-1.1,51.27-2.23,76.87-3.3Z"/><path class="cls-6" d="M310,182.91l-18.8-.61c-64.07-2.08-130.32-4.22-194.58-7.23a132.62,132.62,0,0,0-3.09-25.95,6.26,6.26,0,0,0,2.37.22c1.39-.1,3.42-.61,3.33-1.62a.63.63,0,0,0-.1-.32c66.51-2.72,133.73-5.79,198.79-8.76l12.08-.55V137l-12.16.55c-67.1,3.06-136.48,6.23-205,9l-.49,0-.8,0,.14.61c0,.12,0,.24.08.36a132.11,132.11,0,0,1,3.46,28v.53l.66,0c64.48,3,131,5.18,195.27,7.26L310,184ZM97.52,147.84a6.35,6.35,0,0,1-3.21.31,1.82,1.82,0,0,1-1-.51A18.09,18.09,0,0,1,97.52,147.84Z"/><path class="cls-6" d="M310,98.07c-30.11-.81-61-2.1-91-3.34-40-1.67-81.38-3.39-121.72-4a11.2,11.2,0,0,1-5-1.95c-1.1-7.24-.39-15.07.29-22.64.13-1.48.26-2.94.38-4.36,34.46,2.51,69.32,4.61,103,6.65C233.29,70.66,271.78,73,310,75.87V74.74c-38.14-2.88-76.59-5.2-113.82-7.45-33.95-2.05-69.06-4.17-103.74-6.7l-.73-.06,0,.58c-.13,1.6-.28,3.25-.43,4.93-.69,7.7-1.41,15.65-.25,23.06l0,.19.17.13a12.63,12.63,0,0,0,6.12,2.42c40.3.63,81.66,2.35,121.66,4,30,1.25,60.89,2.53,91,3.34Z"/><path class="cls-6" d="M310,29.74c-71.79.26-141.75.26-213.74,0v1.13c36.61.14,72.69.21,108.76.21,34.86,0,69.71-.07,105-.2Z"/><polygon class="cls-6" points="123.66 64.16 121.55 30.32 122.95 30.26 125.07 64.1 123.66 64.16"/><polygon class="cls-6" points="169.32 66.24 167.21 30.31 168.62 30.26 170.73 66.19 169.32 66.24"/><polygon class="cls-6" points="225.27 69.89 223.16 30.31 224.56 30.26 226.68 69.84 225.27 69.89"/><rect class="cls-6" x="287.34" y="30.29" width="1.41" height="43.63"/><rect class="cls-6" x="140.17" y="64.31" width="1.41" height="27.95"/><rect class="cls-6" x="194.93" y="67.89" width="1.41" height="26.37"/><rect class="cls-6" x="249.34" y="71.79" width="1.41" height="24.56"/><polygon class="cls-6" points="132.57 145.34 128.82 92.29 130.22 92.23 133.97 145.27 132.57 145.34"/><polygon class="cls-6" points="182.09 143.65 179.07 94.95 180.47 94.89 183.5 143.59 182.09 143.65"/><polygon class="cls-6" points="225.27 141.86 223.16 96.37 224.56 96.33 226.68 141.82 225.27 141.86"/><polygon class="cls-6" points="277.67 139.54 274.27 98.75 275.68 98.67 279.08 139.47 277.67 139.54"/><polygon class="cls-6" points="196.45 30.32 194.97 8.98 146.47 7.81 146.47 30.29 145.06 30.29 145.06 6.65 196.31 7.89 197.85 30.26 196.45 30.32"/><rect class="cls-6" x="242.16" y="5.14" width="1.41" height="25.14"/><polygon class="cls-6" points="303.37 30.34 300.72 8.79 302.12 8.68 304.77 30.23 303.37 30.34"/><rect class="cls-6" x="154.13" y="144.36" width="1.41" height="33.93"/><polygon class="cls-6" points="201.28 179.89 198.71 143.55 200.12 143.49 202.69 179.83 201.28 179.89"/><rect class="cls-6" x="246.34" y="140.29" width="1.41" height="41.07"/><rect class="cls-6" x="295.01" y="138.22" width="1.41" height="44.77"/><path class="cls-6" d="M135.86,210.5l-1.36-.28c.19-1.15-2.17-19.95-3.8-32.3l1.4-.12C133.35,187.31,136.24,209.53,135.86,210.5Z"/><path class="cls-6" d="M181.32,208l-.08-1.12,0,.56-.64-.2c.33-1,1.05-16.26,1.45-26.28l1.41,0C182.41,208,182.18,208,181.32,208Z"/><polygon class="cls-6" points="231.93 205.34 228.65 180.83 230.04 180.71 233.33 205.22 231.93 205.34"/><rect class="cls-6" x="281.07" y="184.04" width="1.41" height="18.29"/><polygon class="cls-6" points="214.06 248.62 159.42 244.29 159.42 208.85 160.83 208.85 160.83 243.27 212.73 247.38 215.1 205.96 216.51 206.01 214.06 248.62"/><polygon class="cls-6" points="261.81 248.6 261.81 204.29 263.21 204.29 263.21 247.4 307.1 245.36 303.92 202.29 305.32 202.22 308.59 246.42 261.81 248.6"/></g><path class="cls-7" d="M310,18.25l-.4-1.07c-159.45,24.47-161,222.25-161,222.25l3,2.65,19.15-18.7,15.58-60.8,24.35-60.71s62.18-53.23,65.25-53.23c2.24,0,22.92-6.25,34-9.65Z"/><path class="cls-8" d="M310,36.82c-21.85,8.45-44.81,24.74-73.81,43.32C178.6,117,164.22,196.69,160.7,240.34H310Z"/><path class="cls-9" d="M178.76,199.12c-3.61,15-5.74,30.1-7.67,45.43l-19.49-4a386.34,386.34,0,0,1,8.61-51Z"/><path class="cls-9" d="M191.32,159.75a277.3,277.3,0,0,0-12.56,39.37l-18.55-9.58c4-15,8.24-29.73,14.09-44.19Z"/><path class="cls-9" d="M208.05,126.42c-7.43,12.12-10.83,18.79-16.73,33.33l-17-14.4a254.08,254.08,0,0,1,18.79-37.41Z"/><path class="cls-9" d="M228.28,99.14c-8.7,9.7-12.79,15.16-20.23,27.28l-15-18.48c8.35-13.61,12.94-19.73,22.7-30.62C220.78,86.05,223.28,90.42,228.28,99.14Z"/><path class="cls-9" d="M251.29,77.92c-9.67,7.28-14.32,11.53-23,21.22-5-8.72-7.5-13.09-12.49-21.82,9.75-10.88,15-15.65,25.83-23.82Z"/><path class="cls-9" d="M276.4,62.75a118.32,118.32,0,0,0-25.11,15.17L241.62,53.5c10.85-8.17,16.54-11.57,28.18-17Z"/><path class="cls-9" d="M302.91,53.63a108.48,108.48,0,0,0-26.51,9.12l-6.6-26.28C281.44,31,287.44,29,299.55,26.23,300.89,37.19,301.56,42.67,302.91,53.63Z"/><path class="cls-9" d="M310,24.16c-3.11.5-6.43,1.18-10.4,2.07,1.34,11,2,16.44,3.36,27.4,2.61-.59,4.9-1.07,7-1.47Z"/><rect class="cls-10" x="104.45" y="232.48" width="205.5" height="20.43"/><rect class="cls-11" x="104.45" y="246.73" width="205.5" height="6.18"/><polygon class="cls-12" points="309.95 178.75 210.54 178.83 209.26 204.11 264.72 203.53 275.65 203.32 309.95 202.73 309.95 178.75"/><path class="cls-13" d="M308.66,194.07c.32-.23-.16-.6-.47-.37-2.44,1.8-4.34-.35-2.69-2,1-1,2.88-.87,4.2-.65l.25.05v-.6c-2.44-.5-5,.17-6.08,2.4C302.61,195.55,307.22,195.14,308.66,194.07Z"/><path class="cls-13" d="M310,198.53c-5.71,1.31-12.37.38-18.08-.28-4.47-.51-8.94-1.5-13.47-1.49-4.94,0-9.79,1.4-14.52,2.45-5.66,1.24-45.29,1-51,1.89-.42.07-.23.59.19.53,4.17-.66,42.22-.71,46.41-1.11a90.61,90.61,0,0,0,10.73-2.17,40.48,40.48,0,0,1,14.63-.46c7.59,1.05,15.62,2.35,23.35,1.48.58-.06,1.17-.15,1.76-.26Z"/><path class="cls-13" d="M211.87,190.79c5.13,1.86,44,1,49.23-.33,2.78-.68,5.53-1.45,8.33-2.07a13.68,13.68,0,0,1,5.37-.16,6.22,6.22,0,0,1,2.29,1.13c1.86,1.32-.3,2.72-2,2.84-.43,0-.41.57,0,.54,5.78-.4,3.32-4.43-.89-5.18-3.29-.59-7.21.79-10.28,1.59-6,1.56-45.72,3.34-51.73,1.16-.39-.14-.71.34-.32.48Z"/><path class="cls-13" d="M277,189c10-1.81,18.7,5.83,28.62,2.88.4-.12.21-.65-.19-.53-9.83,2.93-18.61-4.69-28.63-2.88-.41.08-.22.6.2.53Z"/><path class="cls-13" d="M310,182.35a132.41,132.41,0,0,0-19.27-1.89c-7.93-.18-16.06-.32-24,.12-6.27.34-46.49,1.79-52.15,4.11-.38.16,0,.62.34.46,6.49-2.66,47.81-4.11,55-4.12,8.1,0,16.19-.19,24.28.07a116.77,116.77,0,0,1,15.8,1.75Z"/><path class="cls-12" d="M208.27,191.45c-.34,6.92.11,12.57,1,12.61s1.92-5.53,2.26-12.45-.11-12.57-1-12.62S208.61,184.53,208.27,191.45Z"/><polygon class="cls-14" points="309.95 159.56 210.63 159.64 209.34 184.92 264.8 184.35 275.73 184.13 309.95 183.54 309.95 159.56"/><path class="cls-13" d="M308.74,174.89c.32-.24-.16-.61-.47-.38-2.44,1.8-4.34-.35-2.69-2,1-1,2.88-.87,4.2-.65l.17,0v-.6c-2.42-.48-4.95.21-6,2.42C302.69,176.36,307.3,176,308.74,174.89Z"/><path class="cls-13" d="M310,179.36c-5.69,1.28-12.32.36-18-.3-4.47-.51-8.94-1.5-13.47-1.49-4.94,0-9.79,1.4-14.52,2.45-5.66,1.24-45.29,1-51,1.89-.42.07-.23.59.19.53,4.17-.66,42.22-.71,46.41-1.11,3.64-.33,7.19-1.4,10.73-2.16a40.26,40.26,0,0,1,14.63-.47c7.59,1.05,15.62,2.35,23.35,1.48.55-.06,1.12-.14,1.68-.25Z"/><path class="cls-13" d="M212,171.6c5.13,1.86,44,1,49.23-.32,2.78-.69,5.53-1.46,8.33-2.08a13.63,13.63,0,0,1,5.36-.16,6.19,6.19,0,0,1,2.3,1.13c1.86,1.32-.3,2.72-2,2.84-.43,0-.41.57,0,.55,5.78-.4,3.32-4.44-.89-5.19-3.29-.58-7.21.79-10.28,1.59-6,1.56-45.72,3.34-51.73,1.16-.39-.14-.71.34-.32.48Z"/><path class="cls-13" d="M277.06,169.79c10-1.81,18.7,5.83,28.62,2.88.4-.12.21-.65-.19-.52-9.83,2.92-18.61-4.7-28.63-2.89-.41.08-.22.6.2.53Z"/><path class="cls-13" d="M310,163.15a131.44,131.44,0,0,0-19.19-1.88c-7.93-.18-16.06-.32-24,.12-6.27.34-46.49,1.79-52.15,4.11-.38.16,0,.62.34.46,6.49-2.66,47.81-4.1,55-4.12,8.1,0,16.19-.19,24.28.08A115.76,115.76,0,0,1,310,163.65Z"/><path class="cls-14" d="M208.35,172.26c-.34,6.92.11,12.57,1,12.61s1.92-5.53,2.26-12.45-.11-12.57-1-12.62S208.69,165.34,208.35,172.26Z"/><rect class="cls-15" x="224.92" y="151.36" width="4.1" height="69.47"/><rect class="cls-15" x="213.22" y="204.11" width="96.73" height="4.1"/><path class="cls-16" d="M259.13,159s-31.47-20.88-12.58-41.59c10.58-12.28,13.32-13.63,11.44-25.82,0,0,21.24,18,12.73,34.83a19,19,0,0,0,6.64-6.15S298.56,151.5,259.13,159Z"/><path class="cls-17" d="M261.34,154.28s-18.84-10.7-9.67-23.11c5.09-7.34,6.53-8.2,4.7-15,0,0,13,9.44,9.32,19.28a9.87,9.87,0,0,0,3.29-3.72S282.79,148.62,261.34,154.28Z"/><polygon class="cls-18" points="76.1 381.77 36.75 365.43 36.75 349.47 72.02 347.25 82.41 358.01 76.1 381.77"/><path class="cls-19" d="M75.85,365.85,76,362.1l-39.2-10.52-.12,3.87s20.93,11.25,38.83,10.34"/><polygon class="cls-20" points="75.73 358.01 76.1 381.77 219.92 365.34 217.52 335.74 75.73 358.01"/><path class="cls-21" d="M218.34,344.63l.53,7.41S116,368.7,75.48,365.79l.27-5Z"/><path class="cls-22" d="M30,347.73s17.37,13.81,33.85,14.7l2.67-17.81-4.32-12.07L30,321Z"/><path class="cls-23" d="M63.87,362.43S218,359.76,228.19,338.38s.45-28.95.45-28.95l-38.75,1.34L59,324.13A72.31,72.31,0,0,0,63.87,362.43Z"/><path class="cls-22" d="M27.3,279.48,26.09,195.6l24.75,3.23,6.79,79.88S35.77,275,27.3,279.48Z"/><path class="cls-22" d="M26.09,195.6s82.05-36.46,164.08-5.93l-4,4.42-130,7.13Z"/><path class="cls-23" d="M54.05,280.41l-3.21-81.58S90.71,170,190.17,189.67a357.86,357.86,0,0,1,6.42,69.66l-19.17,35.41s-49.43-2.67-98,3.56Z"/><path class="cls-22" d="M233.09,309.43s-16.92,14.7-164.33,20.93L79,291.18l77.93-9.8L197,290.29Z"/><path class="cls-23" d="M88.86,329s4.93-21.63.55-37l-20.27-4.39-18.34.55S42,290.38,42,291.75s-1.09,24.65-1.09,24.65,4.65,13.14,12.87,15.06S88.86,329,88.86,329Z"/><path class="cls-22" d="M53.81,331.46s-10.13.27-8.49-38.89l-2.74-5.47-32.31-4.93s-2.46,18.62,3,32.31Z"/><path class="cls-23" d="M10.27,282.17S33,270.94,57.09,276.69L89.41,292s-5.19-3.2-44.09.54Z"/><path class="cls-23" d="M244.16,310.24s-13.06,5.67-32,6.9L203.24,290l2.69-10.84,37.49-9.87,7.4,4.44S256.49,306.54,244.16,310.24Z"/><path class="cls-22" d="M177,298.3s-3.83-36.88,19.6-36.38c0,0,40.18.49,54.24,11.83,0,0-15.59-6.37-41.52,6.25,0,0-2.61,23.83,2.81,37.14Z"/><path class="cls-24" d="M174.25,389.09s5.71,8.86,19.28,8.78l.39,2.79s-17.4,1.49-22.69-6.81l.39,6.36-5.8-.58,1.74-11.51Z"/><path class="cls-25" d="M174.2,388.69l-6.3-.12c.34-17.81-1.62-33-5.81-45.21-3.39-9.83-8.24-17.76-14.44-23.57-12.94-12.14-27.49-11.07-27.63-11.06l-.53-6.29a38.09,38.09,0,0,1,10.7,1.06,46.76,46.76,0,0,1,10.38,3.72,48.28,48.28,0,0,1,11.4,8c6.95,6.52,12.36,15.31,16.08,26.12C172.49,354.2,174.56,370.14,174.2,388.69Z"/><path class="cls-24" d="M194.46,384.76s5.7,8.86,19.27,8.78l.39,2.79s-17.39,1.49-22.69-6.81l.4,6.36-5.8-.58,1.74-11.51Z"/><path class="cls-25" d="M194.41,384.35l-6.31-.12c.34-17.8-1.61-33-5.81-45.2-3.38-9.83-8.24-17.76-14.44-23.57-12.94-12.14-27.48-11.08-27.63-11.06l-.53-6.29a37.71,37.71,0,0,1,10.71,1.06,46.36,46.36,0,0,1,10.37,3.72,48.08,48.08,0,0,1,11.4,8c7,6.52,12.36,15.3,16.08,26.12C192.69,349.87,194.76,365.81,194.41,384.35Z"/><path class="cls-26" d="M31.2,265.16c14.94,11.18,34.12,14.32,56.07,9A120,120,0,0,0,121.32,260l-3.76-5.93c-.54.35-54.84,35-88.79-.46l-5,4.94A61.78,61.78,0,0,0,31.2,265.16Z"/><path class="cls-27" d="M75,276.26c-.19-.87-.36-1.68-.44-2.33-.22-1.61-.36-3.22-.52-4.83,23.24-2.2,43.22-14.84,43.55-15.05l3.76,5.93a120,120,0,0,1-34,14.23A88.88,88.88,0,0,1,75,276.26Z"/><path class="cls-26" d="M206,223.2c-9.5,16.22-25.95,26.66-48.14,30.42a118.16,118.16,0,0,1-36.71.25l1.2-7c.63.11,63.71,10.76,81.49-35.35l6.51,2.58A62.66,62.66,0,0,1,206,223.2Z"/><path class="cls-27" d="M170,250.68c-.15-.87-.31-1.69-.47-2.33-.41-1.56-.9-3.11-1.36-4.66-22.21,7.11-45.39,3.28-45.77,3.21l-1.2,7a118.16,118.16,0,0,0,36.71-.25A85.82,85.82,0,0,0,170,250.68Z"/><polygon class="cls-27" points="156.71 301 141 234.61 108.08 242.54 116.17 310.28 156.71 301"/><polygon class="cls-28" points="113.87 248.45 72.28 240.23 53.53 194.62 47.81 180.04 26.52 155.1 33.49 146.3 60.3 145.76 91.29 152.53 120.23 116.81 134.9 98.74 142.35 138 166.29 164.31 167.89 196.31 147.42 234.54 113.87 248.45"/><path class="cls-26" d="M192.07,174.73s-6.32-13.6-23.76-18c0,0,6-2.17,8.11-1.54a33.47,33.47,0,0,0-19-5.55L148.17,132l8.54-.3s-1.52-2.86-10.38-4.34c1.74-12-7.49-29.72-7.49-29.72-25.3,6.19-29.61,22.18-30.33,27a117.83,117.83,0,0,0-21.16,10.8s3.61-6.71,9.12-9.6a36.49,36.49,0,0,0-24.74,18.86S42,136.64,21.66,151.78c0,0,2,12.37,27.27,35.6,0,0-12,16.34-11.4,30.41,0,0,4.63-14.55,8.92-18.95,0,0-12.64,30.14,2.27,44.41,0,0-3.71-10.94-1.55-15.26,0,0,2.07,10.66,7.48,18.71l-.62-.15a11.24,11.24,0,0,1,1.78,1.29l.13.13a27.85,27.85,0,0,1,4.74.1c-1.71-3-3.17-6.47-2.9-8.89a100.59,100.59,0,0,0,6.72,9.63c.64.17,1.28.32,1.91.54,3.88,1.32,7.59,2.82,11.29,4.49l5.57-.34c9.16.85,15.3,2,25,1.28,8.91-.66,17.71-1.08,26.63-1.22,4.3-.08,7-1.88,11.5-3.43,6.09-2.11,9.2-5.7.39,1.48a38.35,38.35,0,0,1,7.52-4.79l-.12,0h0c.5-.34,1-.68,1.52-1a21.12,21.12,0,0,0,3.67-3.31c3-3.27,7.08-9.14,9.33-18.4,0,0,.81,9.58-.15,11.38,0,0,9.23-11.36,8.76-22.34,0,0,1.34,9.58,1,11.62,0,0,9.31-15.12,8.52-31.29,0,0,1.63,5.35,1.34,6.55,0,0,11.74-11-3.11-27.31A9.08,9.08,0,0,1,192.07,174.73Zm-141,0C40.86,170.4,32,155.52,32,155.52,42.22,147.72,61.8,154,61.8,154,54.77,162.32,51.09,174.77,51.09,174.77ZM126.87,202c-10.18,4.67-23-1.66-28.56-14.14s-5.43-34.31,4.75-39,26.52,9.6,32.12,22.08S137.05,197.34,126.87,202Zm34.06-21.89c.31,5.75-2.42,13.13-2.42,13.13s-21.36-.32-13.84-6.35S160.63,174.36,160.93,180.11Zm-22.07-48.42s-15.62-6.22-21.11-6.6c-2.37-.16,2.87-13.36,16.6-18.52C134.35,106.57,143.16,123.08,138.86,131.69Z"/><path class="cls-26" d="M46.69,228.57s7,27.69,23.38,36.06c0,0-7.29-10.33-8.9-15.57,0,0,11.16,20.26,44.25,17.61a38.84,38.84,0,0,1-17.62-8s46.05,10.91,71-15.61l-61.79-.34S64.41,224,63.76,224.08,46.69,228.57,46.69,228.57Z"/><path class="cls-28" d="M105.15,237.13c13.7,2.54,28.68-1.82,44.57-13a.75.75,0,0,0,.19-1,.73.73,0,0,0-1-.19c-17,11.93-32.82,15.93-47.08,11.89-22.19-6.28-33-30.17-33.1-30.41a.74.74,0,0,0-1-.38.76.76,0,0,0-.37,1c.11.25,11.2,24.78,34.05,31.24C102.64,236.6,103.89,236.89,105.15,237.13Z"/><ellipse class="cls-26" cx="110.53" cy="188.64" rx="3.76" ry="7.93" transform="translate(-79.51 80.54) rotate(-30)"/><ellipse class="cls-28" cx="143.93" cy="168.6" rx="3.76" ry="7.93" transform="translate(-65.02 94.55) rotate(-30)"/><path class="cls-28" d="M58.74,206.84s-3.25-21,13.78-10.79c0,0-13.91-6.26-12.78,13.87"/><path class="cls-26" d="M205.28,214.7c-3.37,1.81-19.38.49-16.05-5,2.69-4.11,12.57.9,15.72,2.4l.21-.45a31.75,31.75,0,0,1,2.63-6.34c1.79-3.11,12.13-17.22,16.67-15.4,6.24,2.19-10.18,16.83-12.83,19.2,4.39-3.75,14.58-6.94,19.49-2.85-1.07,6.53-16.2,4.52-20.88,4,2.73,1,12.37,3.89,7.39,7.24-2.57,1.75-6.77-.35-9.16-1.6"/><path class="cls-26" d="M30.71,256.43c3.81.37,18.07-7,12.91-10.77-4.07-2.75-11.26,5.67-13.59,8.26l-.37-.33a31.39,31.39,0,0,0-4.87-4.84C22,246.57,7,237.52,3.49,241c-4.92,4.42,15.86,11.61,19.22,12.78-5.49-1.76-16.13-.79-19.09,4.87,3.5,5.61,16.7-2.06,20.8-4.39-2.16,2-9.93,8.35-4,9.53,3.05.62,6.11-2.93,7.84-5"/></g></g></svg>