<?xml version="1.0" encoding="UTF-8" standalone="no"?>
<svg
   xmlns:dc="http://purl.org/dc/elements/1.1/"
   xmlns:cc="http://creativecommons.org/ns#"
   xmlns:rdf="http://www.w3.org/1999/02/22-rdf-syntax-ns#"
   xmlns:svg="http://www.w3.org/2000/svg"
   xmlns="http://www.w3.org/2000/svg"
   viewBox="0 0 546.66669 128"
   height="128"
   width="546.66669"
   xml:space="preserve"
   id="svg2"
   version="1.1"><metadata
     id="metadata8"><rdf:RDF><cc:Work
         rdf:about=""><dc:format>image/svg+xml</dc:format><dc:type
           rdf:resource="http://purl.org/dc/dcmitype/StillImage" /></cc:Work></rdf:RDF></metadata><defs
     id="defs6"><clipPath
       id="clipPath20"
       clipPathUnits="userSpaceOnUse"><path
         style="clip-rule:evenodd"
         id="path18"
         d="m 1258.08,252.523 c -15.01,5.758 -24.83,17.907 -24.83,34.098 0,19.641 16.16,35.813 35.8,35.813 5.77,0 10.38,-1.149 14.43,-2.879 25.41,-11.563 52.54,-18.492 85.46,-18.492 60.04,0 88.34,28.886 88.34,84.378 v 15.024 c -26,-31.219 -54.27,-50.274 -101.04,-50.274 -72.18,0 -137.44,52.59 -137.44,144.481 v 1.148 c 0,92.473 66.41,144.481 137.44,144.481 47.91,0 76.21,-20.223 99.87,-46.227 v 0.582 c 0,23.688 19.64,43.328 43.89,43.328 24.25,0 43.86,-19.64 43.86,-43.91 v -199.39 c 0,-55.493 -13.25,-95.938 -39.25,-121.938 -28.86,-28.906 -73.33,-41.617 -133.36,-41.617 -41.01,0 -76.8,6.93 -113.17,21.394 z m 199.2,242.149 v 1.148 c 0,42.196 -32.92,71.664 -75.64,71.664 -42.72,0 -75.06,-29.468 -75.06,-71.664 v -1.148 c 0,-42.762 32.34,-71.668 75.06,-71.668 42.72,0 75.64,29.469 75.64,71.668 z" /></clipPath><clipPath
       id="clipPath26"
       clipPathUnits="userSpaceOnUse"><path
         id="path24"
         d="M 0,0 H 4100 V 960 H 0 Z" /></clipPath><clipPath
       id="clipPath36"
       clipPathUnits="userSpaceOnUse"><path
         style="clip-rule:evenodd"
         id="path34"
         d="m 1593.55,594.074 c 0,24.27 19.62,43.91 43.89,43.91 24.24,0 43.86,-19.64 43.86,-43.91 v -13.859 c 12.72,30.031 33.49,57.769 59.49,57.769 27.14,0 42.71,-17.906 42.71,-42.742 0,-23.125 -15.01,-37.004 -32.89,-41.051 -44.48,-10.414 -69.31,-44.492 -69.31,-106.914 v -82.058 c 0,-24.274 -19.62,-43.934 -43.86,-43.934 -24.27,0 -43.89,19.66 -43.89,43.934 v 228.855" /></clipPath><clipPath
       id="clipPath42"
       clipPathUnits="userSpaceOnUse"><path
         id="path40"
         d="M 0,0 H 4100 V 960 H 0 Z" /></clipPath><clipPath
       id="clipPath52"
       clipPathUnits="userSpaceOnUse"><path
         style="clip-rule:evenodd"
         id="path50"
         d="m 1773.12,413.762 v 1.144 c 0,67.617 51.38,98.84 124.72,98.84 31.17,0 53.69,-5.195 75.64,-12.711 v 5.199 c 0,36.395 -22.53,56.641 -66.4,56.641 -24.25,0 -43.89,-3.488 -60.63,-8.684 -5.19,-1.73 -8.65,-2.316 -12.7,-2.316 -20.2,0 -36.38,15.609 -36.38,35.855 0,15.586 9.8,28.883 23.68,34.098 27.71,10.395 57.74,16.156 98.73,16.156 47.91,0 82.56,-12.711 104.49,-34.668 23.11,-23.101 33.51,-57.222 33.51,-98.836 V 363.484 c 0,-23.707 -19.06,-42.199 -42.74,-42.199 -25.4,0 -42.14,17.906 -42.14,36.418 v 0.586 c -21.37,-23.707 -50.81,-39.297 -93.55,-39.297 -58.3,0 -106.23,33.496 -106.23,94.77 z m 201.51,20.222 v 15.61 c -15.01,6.929 -34.63,11.562 -56.02,11.562 -37.53,0 -60.61,-15.027 -60.61,-42.785 v -1.148 c 0,-23.707 19.64,-37.563 47.91,-37.563 41.01,0 68.72,22.539 68.72,54.324 z" /></clipPath><clipPath
       id="clipPath58"
       clipPathUnits="userSpaceOnUse"><path
         id="path56"
         d="M 0,0 H 4100 V 960 H 0 Z" /></clipPath><clipPath
       id="clipPath68"
       clipPathUnits="userSpaceOnUse"><path
         style="clip-rule:evenodd"
         id="path66"
         d="m 2104.56,594.074 c 0,24.27 19.62,43.91 43.89,43.91 24.25,0 43.89,-19.64 43.89,-43.91 v -3.488 c 20.18,26.027 46.76,49.715 91.21,49.715 40.41,0 71.02,-17.906 87.17,-49.129 27.15,31.785 59.49,49.129 101.62,49.129 65.26,0 104.52,-39.301 104.52,-113.867 V 365.219 c 0,-24.274 -19.64,-43.934 -43.89,-43.934 -24.24,0 -43.88,19.66 -43.88,43.934 v 132.332 c 0,41.613 -18.48,63.004 -51.38,63.004 -32.92,0 -53.12,-21.391 -53.12,-63.004 V 365.219 c 0,-24.274 -19.62,-43.934 -43.89,-43.934 -24.25,0 -43.89,19.66 -43.89,43.934 v 132.332 c 0,41.613 -18.45,63.004 -51.37,63.004 -32.92,0 -53.1,-21.391 -53.1,-63.004 V 365.219 c 0,-24.274 -19.64,-43.934 -43.89,-43.934 -24.27,0 -43.89,19.66 -43.89,43.934 v 228.855" /></clipPath><clipPath
       id="clipPath74"
       clipPathUnits="userSpaceOnUse"><path
         id="path72"
         d="M 0,0 H 4100 V 960 H 0 Z" /></clipPath><clipPath
       id="clipPath84"
       clipPathUnits="userSpaceOnUse"><path
         style="clip-rule:evenodd"
         id="path82"
         d="m 2624.23,594.074 c 0,24.27 19.62,43.91 43.89,43.91 24.24,0 43.88,-19.64 43.88,-43.91 v -3.488 c 20.19,26.027 46.77,49.715 91.22,49.715 40.41,0 71.01,-17.906 87.17,-49.129 27.15,31.785 59.49,49.129 101.62,49.129 65.26,0 104.52,-39.301 104.52,-113.867 V 365.219 c 0,-24.274 -19.62,-43.934 -43.89,-43.934 -24.25,0 -43.89,19.66 -43.89,43.934 v 132.332 c 0,41.613 -18.47,63.004 -51.37,63.004 -32.92,0 -53.13,-21.391 -53.13,-63.004 V 365.219 c 0,-24.274 -19.61,-43.934 -43.88,-43.934 -24.25,0 -43.87,19.66 -43.87,43.934 v 132.332 c 0,41.613 -18.47,63.004 -51.39,63.004 -32.92,0 -53.11,-21.391 -53.11,-63.004 V 365.219 c 0,-24.274 -19.64,-43.934 -43.88,-43.934 -24.27,0 -43.89,19.66 -43.89,43.934 v 228.855" /></clipPath><clipPath
       id="clipPath90"
       clipPathUnits="userSpaceOnUse"><path
         id="path88"
         d="M 0,0 H 4100 V 960 H 0 Z" /></clipPath><clipPath
       id="clipPath100"
       clipPathUnits="userSpaceOnUse"><path
         style="clip-rule:evenodd"
         id="path98"
         d="m 3125.43,413.762 v 1.144 c 0,67.617 51.39,98.84 124.7,98.84 31.18,0 53.7,-5.195 75.64,-12.711 v 5.199 c 0,36.395 -22.5,56.641 -66.41,56.641 -24.25,0 -43.87,-3.488 -60.61,-8.684 -5.19,-1.73 -8.65,-2.316 -12.7,-2.316 -20.22,0 -36.38,15.609 -36.38,35.855 0,15.586 9.82,28.883 23.67,34.098 27.73,10.395 57.75,16.156 98.74,16.156 47.93,0 82.56,-12.711 104.49,-34.668 23.11,-23.101 33.49,-57.222 33.49,-98.836 V 363.484 c 0,-23.707 -19.04,-42.199 -42.7,-42.199 -25.42,0 -42.16,17.906 -42.16,36.418 v 0.586 c -21.37,-23.707 -50.83,-39.297 -93.53,-39.297 -58.33,0 -106.24,33.496 -106.24,94.77 z m 201.5,20.222 v 15.61 c -15.01,6.929 -34.65,11.562 -56,11.562 -37.55,0 -60.63,-15.027 -60.63,-42.785 v -1.148 c 0,-23.707 19.62,-37.563 47.91,-37.563 40.99,0 68.72,22.539 68.72,54.324 z" /></clipPath><clipPath
       id="clipPath106"
       clipPathUnits="userSpaceOnUse"><path
         id="path104"
         d="M 0,0 H 4100 V 960 H 0 Z" /></clipPath><clipPath
       id="clipPath116"
       clipPathUnits="userSpaceOnUse"><path
         style="clip-rule:evenodd"
         id="path114"
         d="m 3456.84,594.074 c 0,24.27 19.64,43.91 43.89,43.91 24.27,0 43.89,-19.64 43.89,-43.91 v -13.859 c 12.7,30.031 33.48,57.769 59.48,57.769 27.13,0 42.7,-17.906 42.7,-42.742 0,-23.125 -15.01,-37.004 -32.9,-41.051 -44.45,-10.414 -69.28,-44.492 -69.28,-106.914 v -82.058 c 0,-24.274 -19.62,-43.934 -43.89,-43.934 -24.25,0 -43.89,19.66 -43.89,43.934 v 228.855" /></clipPath><clipPath
       id="clipPath122"
       clipPathUnits="userSpaceOnUse"><path
         id="path120"
         d="M 0,0 H 4100 V 960 H 0 Z" /></clipPath><clipPath
       id="clipPath132"
       clipPathUnits="userSpaceOnUse"><path
         style="clip-rule:evenodd"
         id="path130"
         d="m 3673.38,706.207 c 0,24.27 19.62,43.906 43.87,43.906 24.27,0 43.91,-19.636 43.91,-43.906 V 365.219 c 0,-24.274 -19.64,-43.934 -43.91,-43.934 -24.25,0 -43.87,19.66 -43.87,43.934 v 340.988" /></clipPath><clipPath
       id="clipPath138"
       clipPathUnits="userSpaceOnUse"><path
         id="path136"
         d="M 0,0 H 4100 V 960 H 0 Z" /></clipPath><clipPath
       id="clipPath148"
       clipPathUnits="userSpaceOnUse"><path
         style="clip-rule:evenodd"
         id="path146"
         d="m 3831.02,238.645 c -12.72,4.609 -27.73,15.023 -27.73,36.394 0,21.391 16.75,35.856 34.66,35.856 6.92,0 10.96,-1.168 14.43,-2.317 7.5,-2.316 12.13,-3.484 18.49,-3.484 15.57,0 23.08,2.898 31.17,18.508 l 2.87,6.929 -105.64,245.051 c -2.31,5.781 -4.63,14.441 -4.63,20.223 0,24.855 19.06,42.179 43.31,42.179 21.93,0 34.63,-12.125 42.13,-32.914 l 66.99,-180.332 64.65,179.75 c 6.95,18.469 19.62,33.496 42.16,33.496 22.52,0 41.55,-17.324 41.55,-40.445 0,-6.953 -2.29,-16.762 -4.02,-20.809 L 3983.43,317.238 c -25.98,-62.984 -51.95,-86.691 -104.49,-86.691 -19.64,0 -33.49,2.879 -47.92,8.098" /></clipPath><clipPath
       id="clipPath154"
       clipPathUnits="userSpaceOnUse"><path
         id="path152"
         d="M 0,0 H 4100 V 960 H 0 Z" /></clipPath><clipPath
       id="clipPath164"
       clipPathUnits="userSpaceOnUse"><path
         style="clip-rule:evenodd"
         id="path162"
         d="M 975.953,480 C 975.953,214.914 761.27,0 496.422,0 231.594,0 16.8867,214.914 16.8867,480 c 0,265.105 214.7073,480 479.5353,480 264.848,0 479.531,-214.895 479.531,-480" /></clipPath><clipPath
       id="clipPath170"
       clipPathUnits="userSpaceOnUse"><path
         id="path168"
         d="M 0,0 H 4100 V 960 H 0 Z" /></clipPath><clipPath
       id="clipPath180"
       clipPathUnits="userSpaceOnUse"><path
         style="clip-rule:evenodd"
         id="path178"
         d="m 559.094,376.363 c 2.836,-15.715 17.597,-26.484 33.547,-26.484 h 50.246 l 29.125,4.09 C 625.414,285.539 544.5,254.047 456.035,267.945 c -72.012,11.309 -133.871,60.082 -159.976,128.2 -59.254,154.625 53.562,302.253 200.57,302.253 76.621,0 143.828,-44.863 182.324,-99.109 11.102,-15.641 30.524,-20.16 45.285,-9.91 14.012,9.723 18.098,28.191 9.676,42.719 C 680.621,715.367 584.863,768.648 477.176,761.426 336.965,752.016 223.504,637.168 215.434,496.738 206.074,333.328 335.566,199.91 496.629,199.91 c 84.605,0 160.351,36.875 211.953,96.543 l -6.109,-34.226 v -30.93 c 0,-15.945 10.738,-30.742 26.437,-33.578 20.621,-3.715 38.551,12.043 38.551,31.992 V 414.949 H 591.035 c -19.933,0 -35.676,-17.969 -31.941,-38.586 z" /></clipPath><clipPath
       id="clipPath186"
       clipPathUnits="userSpaceOnUse"><path
         id="path184"
         d="M 0,0 H 4100 V 960 H 0 Z" /></clipPath></defs><g
     transform="matrix(1.3333333,0,0,-1.3333333,0,128)"
     id="g10"><g
       transform="scale(0.1)"
       id="g12"><g
         id="g14"><g
           clip-path="url(#clipPath20)"
           id="g16"><g
             clip-path="url(#clipPath26)"
             id="g22"><path
               id="path28"
               style="fill:#4b4b4b;fill-opacity:1;fill-rule:nonzero;stroke:none"
               d="m 1118.8,131.129 h 525.059 V 740.301 H 1118.8 Z" /></g></g></g><g
         id="g30"><g
           clip-path="url(#clipPath36)"
           id="g32"><g
             clip-path="url(#clipPath42)"
             id="g38"><path
               id="path44"
               style="fill:#4b4b4b;fill-opacity:1;fill-rule:nonzero;stroke:none"
               d="m 1493.55,221.285 h 389.957 V 737.984 H 1493.55 Z" /></g></g></g><g
         id="g46"><g
           clip-path="url(#clipPath52)"
           id="g48"><g
             clip-path="url(#clipPath58)"
             id="g54"><path
               id="path60"
               style="fill:#4b4b4b;fill-opacity:1;fill-rule:nonzero;stroke:none"
               d="m 1673.12,218.992 h 484.656 V 737.984 H 1673.12 Z" /></g></g></g><g
         id="g62"><g
           clip-path="url(#clipPath68)"
           id="g64"><g
             clip-path="url(#clipPath74)"
             id="g70"><path
               id="path76"
               style="fill:#4b4b4b;fill-opacity:1;fill-rule:nonzero;stroke:none"
               d="m 2004.56,221.285 h 672.297 V 740.301 H 2004.56 Z" /></g></g></g><g
         id="g78"><g
           clip-path="url(#clipPath84)"
           id="g80"><g
             clip-path="url(#clipPath90)"
             id="g86"><path
               id="path92"
               style="fill:#4b4b4b;fill-opacity:1;fill-rule:nonzero;stroke:none"
               d="m 2524.23,221.285 h 672.297 V 740.301 H 2524.23 Z" /></g></g></g><g
         id="g94"><g
           clip-path="url(#clipPath100)"
           id="g96"><g
             clip-path="url(#clipPath106)"
             id="g102"><path
               id="path108"
               style="fill:#4b4b4b;fill-opacity:1;fill-rule:nonzero;stroke:none"
               d="m 3025.43,218.992 h 484.633 V 737.984 H 3025.43 Z" /></g></g></g><g
         id="g110"><g
           clip-path="url(#clipPath116)"
           id="g112"><g
             clip-path="url(#clipPath122)"
             id="g118"><path
               id="path124"
               style="fill:#4b4b4b;fill-opacity:1;fill-rule:nonzero;stroke:none"
               d="m 3356.84,221.285 h 389.957 V 737.984 H 3356.84 Z" /></g></g></g><g
         id="g126"><g
           clip-path="url(#clipPath132)"
           id="g128"><g
             clip-path="url(#clipPath138)"
             id="g134"><path
               id="path140"
               style="fill:#4b4b4b;fill-opacity:1;fill-rule:nonzero;stroke:none"
               d="m 3573.38,221.285 h 287.777 V 850.113 H 3573.38 Z" /></g></g></g><g
         id="g142"><g
           clip-path="url(#clipPath148)"
           id="g144"><g
             clip-path="url(#clipPath154)"
             id="g150"><path
               id="path156"
               style="fill:#4b4b4b;fill-opacity:1;fill-rule:nonzero;stroke:none"
               d="m 3694.64,130.547 h 500.793 V 737.985 H 3694.64 Z" /></g></g></g><g
         id="g158"><g
           clip-path="url(#clipPath164)"
           id="g160"><g
             clip-path="url(#clipPath170)"
             id="g166"><path
               id="path172"
               style="fill:#17c399;fill-opacity:1;fill-rule:nonzero;stroke:none"
               d="M 0,0 H 1075.95 V 1060 H 0 Z" /></g></g></g><g
         id="g174"><g
           clip-path="url(#clipPath180)"
           id="g176"><g
             clip-path="url(#clipPath186)"
             id="g182"><path
               id="path188"
               style="fill:#ffffff;fill-opacity:1;fill-rule:nonzero;stroke:none"
               d="m 114.957,97.1719 h 752.504 v 764.906 H 114.957 Z" /></g></g></g></g></g></svg>